# xmcd
#
# Track frame offsets:
# 150
# 16446
# 37572
# 61092
# 76625
# 96401
# 115389
# 136347
# 156130
# 178368
# 200344
# 221658
#
# Disc length: 3071 seconds
#
#
# Revision: 0
# Processed by: cddbd v1.5PL3 Copyright (c) Steve Scherf et al.
# Submitted via: FreeRIP 2.52 
#
DISCID=9a0bfd0c
DTITLE=Raymond Froggatt - Songland 40
DYEAR=2004
DGENRE=Country
TTITLE0=Rhianna
TTITLE1=Blue Eyes
TTITLE2=My old guitar
TTITLE3=Winds of my Life
TTITLE4=Carnival Balloon
TTITLE5=Me and my girl
TTITLE6=Dream of my life
TTITLE7=Harmony
TTITLE8=I want you
TTITLE9=Just because
TTITLE10=Another fall of rail
TTITLE11=Goodbye
EXTD=
EXTT0=
EXTT1=
EXTT2=
EXTT3=
EXTT4=
EXTT5=
EXTT6=
EXTT7=
EXTT8=
EXTT9=
EXTT10=
EXTT11=
PLAYORDER=
